<mxfile host="app.diagrams.net" modified="2024-01-29T06:44:26.143Z" agent="Mozilla/5.0 (X11; CrOS x86_64 14541.0.0) AppleWebKit/537.36 (KHTML, like Gecko) Chrome/120.0.0.0 Safari/537.36" etag="HW7nJigj7UdzptW-O4-C" version="23.0.0" type="device">
  <diagram name="Page-1" id="dW2hmxV94pmqQ4V380Ie">
    <mxGraphModel dx="1927" dy="635" grid="1" gridSize="10" guides="1" tooltips="1" connect="1" arrows="1" fold="1" page="1" pageScale="1" pageWidth="827" pageHeight="1169" math="0" shadow="0">
      <root>
        <mxCell id="0" />
        <mxCell id="1" parent="0" />
        <mxCell id="jlmrmuBbbdo2PDpg7MLl-4" value="" style="edgeStyle=orthogonalEdgeStyle;rounded=0;orthogonalLoop=1;jettySize=auto;html=1;" edge="1" parent="1" source="jlmrmuBbbdo2PDpg7MLl-1" target="jlmrmuBbbdo2PDpg7MLl-3">
          <mxGeometry relative="1" as="geometry" />
        </mxCell>
        <mxCell id="jlmrmuBbbdo2PDpg7MLl-1" value="user/pengunjung perpus" style="rounded=0;whiteSpace=wrap;html=1;" vertex="1" parent="1">
          <mxGeometry x="-27" y="230" width="120" height="60" as="geometry" />
        </mxCell>
        <mxCell id="jlmrmuBbbdo2PDpg7MLl-9" style="edgeStyle=orthogonalEdgeStyle;rounded=0;orthogonalLoop=1;jettySize=auto;html=1;entryX=0.5;entryY=0;entryDx=0;entryDy=0;" edge="1" parent="1" source="jlmrmuBbbdo2PDpg7MLl-3" target="jlmrmuBbbdo2PDpg7MLl-6">
          <mxGeometry relative="1" as="geometry" />
        </mxCell>
        <mxCell id="jlmrmuBbbdo2PDpg7MLl-10" style="edgeStyle=orthogonalEdgeStyle;rounded=0;orthogonalLoop=1;jettySize=auto;html=1;entryX=0.5;entryY=1;entryDx=0;entryDy=0;" edge="1" parent="1" source="jlmrmuBbbdo2PDpg7MLl-3" target="jlmrmuBbbdo2PDpg7MLl-5">
          <mxGeometry relative="1" as="geometry" />
        </mxCell>
        <mxCell id="jlmrmuBbbdo2PDpg7MLl-3" value="masuk ke perpus&lt;br&gt;" style="rounded=0;whiteSpace=wrap;html=1;" vertex="1" parent="1">
          <mxGeometry x="173" y="230" width="120" height="60" as="geometry" />
        </mxCell>
        <mxCell id="jlmrmuBbbdo2PDpg7MLl-16" style="edgeStyle=orthogonalEdgeStyle;rounded=0;orthogonalLoop=1;jettySize=auto;html=1;entryX=0;entryY=0.5;entryDx=0;entryDy=0;" edge="1" parent="1" source="jlmrmuBbbdo2PDpg7MLl-5" target="jlmrmuBbbdo2PDpg7MLl-14">
          <mxGeometry relative="1" as="geometry" />
        </mxCell>
        <mxCell id="jlmrmuBbbdo2PDpg7MLl-5" value="isi form kunjungan&lt;br&gt;&lt;br&gt;" style="rounded=0;whiteSpace=wrap;html=1;" vertex="1" parent="1">
          <mxGeometry x="173" y="103" width="120" height="60" as="geometry" />
        </mxCell>
        <mxCell id="jlmrmuBbbdo2PDpg7MLl-20" style="edgeStyle=orthogonalEdgeStyle;rounded=0;orthogonalLoop=1;jettySize=auto;html=1;" edge="1" parent="1" source="jlmrmuBbbdo2PDpg7MLl-6" target="jlmrmuBbbdo2PDpg7MLl-11">
          <mxGeometry relative="1" as="geometry" />
        </mxCell>
        <mxCell id="jlmrmuBbbdo2PDpg7MLl-25" style="edgeStyle=orthogonalEdgeStyle;rounded=0;orthogonalLoop=1;jettySize=auto;html=1;entryX=0;entryY=0.75;entryDx=0;entryDy=0;" edge="1" parent="1" source="jlmrmuBbbdo2PDpg7MLl-6" target="jlmrmuBbbdo2PDpg7MLl-23">
          <mxGeometry relative="1" as="geometry">
            <mxPoint x="670" y="500" as="targetPoint" />
            <Array as="points">
              <mxPoint x="232" y="520" />
              <mxPoint x="491" y="520" />
              <mxPoint x="491" y="515" />
            </Array>
          </mxGeometry>
        </mxCell>
        <mxCell id="jlmrmuBbbdo2PDpg7MLl-6" value="daftar buku&lt;br&gt;" style="rounded=0;whiteSpace=wrap;html=1;" vertex="1" parent="1">
          <mxGeometry x="172" y="351" width="120" height="60" as="geometry" />
        </mxCell>
        <mxCell id="jlmrmuBbbdo2PDpg7MLl-21" style="edgeStyle=orthogonalEdgeStyle;rounded=0;orthogonalLoop=1;jettySize=auto;html=1;" edge="1" parent="1" source="jlmrmuBbbdo2PDpg7MLl-11" target="jlmrmuBbbdo2PDpg7MLl-12">
          <mxGeometry relative="1" as="geometry" />
        </mxCell>
        <mxCell id="jlmrmuBbbdo2PDpg7MLl-11" value="pencarian&lt;br&gt;" style="rounded=0;whiteSpace=wrap;html=1;" vertex="1" parent="1">
          <mxGeometry x="353" y="351" width="120" height="60" as="geometry" />
        </mxCell>
        <mxCell id="jlmrmuBbbdo2PDpg7MLl-22" style="edgeStyle=orthogonalEdgeStyle;rounded=0;orthogonalLoop=1;jettySize=auto;html=1;entryX=0;entryY=0.5;entryDx=0;entryDy=0;" edge="1" parent="1" source="jlmrmuBbbdo2PDpg7MLl-12" target="jlmrmuBbbdo2PDpg7MLl-13">
          <mxGeometry relative="1" as="geometry" />
        </mxCell>
        <mxCell id="jlmrmuBbbdo2PDpg7MLl-12" value="memasukan kata kunci&lt;br&gt;" style="rounded=0;whiteSpace=wrap;html=1;" vertex="1" parent="1">
          <mxGeometry x="523" y="351" width="120" height="60" as="geometry" />
        </mxCell>
        <mxCell id="jlmrmuBbbdo2PDpg7MLl-24" style="edgeStyle=orthogonalEdgeStyle;rounded=0;orthogonalLoop=1;jettySize=auto;html=1;entryX=0.5;entryY=0;entryDx=0;entryDy=0;" edge="1" parent="1" source="jlmrmuBbbdo2PDpg7MLl-13" target="jlmrmuBbbdo2PDpg7MLl-23">
          <mxGeometry relative="1" as="geometry" />
        </mxCell>
        <mxCell id="jlmrmuBbbdo2PDpg7MLl-13" value="hasil pencarian&lt;br&gt;" style="rounded=0;whiteSpace=wrap;html=1;" vertex="1" parent="1">
          <mxGeometry x="690" y="351" width="120" height="60" as="geometry" />
        </mxCell>
        <mxCell id="jlmrmuBbbdo2PDpg7MLl-17" style="edgeStyle=orthogonalEdgeStyle;rounded=0;orthogonalLoop=1;jettySize=auto;html=1;entryX=0;entryY=0.5;entryDx=0;entryDy=0;" edge="1" parent="1" source="jlmrmuBbbdo2PDpg7MLl-14" target="jlmrmuBbbdo2PDpg7MLl-15">
          <mxGeometry relative="1" as="geometry" />
        </mxCell>
        <mxCell id="jlmrmuBbbdo2PDpg7MLl-14" value="kirim" style="rounded=0;whiteSpace=wrap;html=1;" vertex="1" parent="1">
          <mxGeometry x="330" y="103" width="120" height="60" as="geometry" />
        </mxCell>
        <mxCell id="jlmrmuBbbdo2PDpg7MLl-19" style="edgeStyle=orthogonalEdgeStyle;rounded=0;orthogonalLoop=1;jettySize=auto;html=1;" edge="1" parent="1" source="jlmrmuBbbdo2PDpg7MLl-15" target="jlmrmuBbbdo2PDpg7MLl-5">
          <mxGeometry relative="1" as="geometry">
            <mxPoint x="211.02564102564102" y="80" as="targetPoint" />
            <Array as="points">
              <mxPoint x="550" y="60" />
              <mxPoint x="211" y="60" />
            </Array>
          </mxGeometry>
        </mxCell>
        <mxCell id="jlmrmuBbbdo2PDpg7MLl-15" value="daftar kunjungan&lt;br&gt;" style="rounded=0;whiteSpace=wrap;html=1;" vertex="1" parent="1">
          <mxGeometry x="490" y="103" width="120" height="60" as="geometry" />
        </mxCell>
        <mxCell id="jlmrmuBbbdo2PDpg7MLl-23" value="hasil pencarian&lt;br&gt;" style="rounded=0;whiteSpace=wrap;html=1;" vertex="1" parent="1">
          <mxGeometry x="690" y="470" width="120" height="60" as="geometry" />
        </mxCell>
      </root>
    </mxGraphModel>
  </diagram>
</mxfile>
